<svg xmlns="http://www.w3.org/2000/svg" viewBox="0 0 640 300" role="img" aria-labelledby="title desc">
  <title id="title">LIFEOS Logo</title>
  <desc id="desc">LIFEOS wordmark with lifestyle optimization monogram.</desc>

  <defs>
    <linearGradient id="navyGrad" x1="0" y1="0" x2="1" y2="1">
      <stop offset="0%" stop-color="#1c4c7d" />
      <stop offset="100%" stop-color="#123e6d" />
    </linearGradient>
    <linearGradient id="goldGrad" x1="0" y1="0" x2="1" y2="1">
      <stop offset="0%" stop-color="#e2b55a" />
      <stop offset="100%" stop-color="#c99133" />
    </linearGradient>
    <linearGradient id="purpleGrad" x1="0" y1="0" x2="1" y2="1">
      <stop offset="0%" stop-color="#9b63c3" />
      <stop offset="100%" stop-color="#7d3eb1" />
    </linearGradient>
  </defs>

  <g transform="translate(74 26)">
    <path fill="url(#navyGrad)" d="M0 26h32v108h66v26H0z"/>

    <circle cx="122" cy="80" r="58" fill="none" stroke="url(#navyGrad)" stroke-width="18"/>

    <g transform="translate(92 52)">
      <rect x="0" y="12" width="40" height="8" rx="4" fill="#1a4a7b"/>
      <rect x="6" y="8" width="5" height="16" rx="2.5" fill="#1a4a7b"/>
      <rect x="29" y="8" width="5" height="16" rx="2.5" fill="#1a4a7b"/>
    </g>

    <g transform="translate(87 83)" fill="none" stroke="#1a4a7b" stroke-width="4" stroke-linecap="round" stroke-linejoin="round">
      <path d="M0 26V2c15 0 22 6 33 14C44 8 51 2 66 2v24"/>
      <path d="M1 26h31c1-5 4-8 6-9 2 1 5 4 6 9h31"/>
      <path d="M33 15v11"/>
    </g>

    <circle cx="252" cy="80" r="58" fill="none" stroke="url(#navyGrad)" stroke-width="18"/>

    <g transform="translate(218 45)" fill="none" stroke="url(#purpleGrad)" stroke-width="9" stroke-linecap="round" stroke-linejoin="round">
      <path d="M0 33a32 32 0 0 1 52-22"/>
      <path d="M60 46a32 32 0 0 1-52 22"/>
      <polygon points="48,5 58,18 41,19" fill="url(#purpleGrad)" stroke="none"/>
      <polygon points="12,73 2,60 19,59" fill="url(#purpleGrad)" stroke="none"/>
    </g>

    <g transform="translate(239 64)" fill="none" stroke="url(#goldGrad)" stroke-width="5" stroke-linecap="round" stroke-linejoin="round">
      <path d="M0 18c8-10 24-10 32 0"/>
      <path d="M4 26c6 8 18 8 24 0"/>
      <path d="M16 8l8 8-8 8"/>
      <path d="M16 8l-8 8 8 8"/>
    </g>

    <g transform="translate(143 -2)">
      <path fill="url(#goldGrad)" d="M22 34c9 0 16-7 16-16S31 2 22 2 6 9 6 18s7 16 16 16z"/>
      <path fill="url(#goldGrad)" d="M22 72c-21 0-37-20-41-45 17 2 28 9 41 22 13-13 24-20 41-22-4 25-20 45-41 45z"/>
      <path fill="url(#goldGrad)" d="M70 10l5 11 12 1-9 8 3 12-11-6-10 6 2-12-9-8 12-1z"/>
    </g>

    <g transform="translate(172 148)" fill="url(#goldGrad)">
      <rect x="0" y="8" width="7" height="14" rx="3.5"/>
      <rect x="10" y="2" width="7" height="26" rx="3.5"/>
      <rect x="20" y="10" width="7" height="10" rx="3.5"/>
      <rect x="30" y="4" width="7" height="22" rx="3.5"/>
      <rect x="40" y="8" width="7" height="14" rx="3.5"/>
    </g>
  </g>

  <text x="82" y="266" font-size="82" font-family="DM Sans, Montserrat, Segoe UI, sans-serif" font-weight="700" letter-spacing="3" fill="url(#navyGrad)">LIFEOS</text>
</svg>
